<svg width="418.401" height="77.101" viewBox="0 0 418.401 77.101" xmlns="http://www.w3.org/2000/svg"><g id="svgGroup" stroke-linecap="round" fill-rule="evenodd" font-size="9pt" stroke="#000000" stroke-width="0.25mm" fill="#000000" style="stroke:#000000;stroke-width:0.25mm;fill:#000000"><path d="M 57.001 29 L 57.801 25 L 61.101 25 L 64.101 11.2 L 78.901 9.2 L 75.501 25 L 81.501 25 L 80.701 29 L 74.701 29 L 68.301 59 Q 68.101 59.9 68.001 60.65 A 11.689 11.689 0 0 0 67.901 62.15 A 12.77 12.77 0 0 0 67.901 62.2 Q 67.901 63.36 68.22 64.133 A 2.476 2.476 0 0 0 68.851 65.05 A 2.759 2.759 0 0 0 69.717 65.56 Q 70.52 65.866 71.728 65.897 A 10.79 10.79 0 0 0 72.001 65.9 A 6.622 6.622 0 0 0 75.445 64.907 Q 76.363 64.358 77.244 63.506 A 12.414 12.414 0 0 0 77.301 63.45 A 13.64 13.64 0 0 0 78.421 62.194 A 19.588 19.588 0 0 1 78.37 61.559 A 27.007 27.007 0 0 1 78.301 59.6 A 39.815 39.815 0 0 1 78.988 52.394 A 50.621 50.621 0 0 1 80.151 47.5 A 46.331 46.331 0 0 1 82.991 40.047 A 39.106 39.106 0 0 1 85.201 36.1 Q 88.901 30.2 94.101 27.15 A 22.392 22.392 0 0 1 105.203 24.105 A 26.569 26.569 0 0 1 105.701 24.1 A 16.261 16.261 0 0 1 109.472 24.511 Q 112.384 25.205 114.356 27.072 A 10.113 10.113 0 0 1 115.301 28.1 Q 118.501 32.1 118.501 40.1 A 1.668 1.668 0 0 0 118.785 40.21 A 2.045 2.045 0 0 0 118.951 40.25 Q 119.119 40.284 119.354 40.295 A 5.289 5.289 0 0 0 119.601 40.3 Q 121.853 40.3 124.739 39.403 A 32.066 32.066 0 0 0 127.001 38.6 A 38.436 38.436 0 0 0 127.806 38.273 A 38.668 38.668 0 0 1 129.001 36.2 A 30.33 30.33 0 0 1 132.788 31.224 A 23.429 23.429 0 0 1 137.851 27.15 A 22.027 22.027 0 0 1 149.202 24.101 A 25.993 25.993 0 0 1 149.301 24.1 A 20.661 20.661 0 0 1 152.328 24.307 Q 155.632 24.798 157.601 26.45 A 7.575 7.575 0 0 1 160.127 30.698 A 11.674 11.674 0 0 1 160.401 33.3 A 12.941 12.941 0 0 1 160.245 35.375 Q 159.925 37.34 158.951 38.65 A 4.923 4.923 0 0 1 157.5 39.983 Q 156.5 40.571 155.227 40.599 A 5.817 5.817 0 0 1 155.101 40.6 A 4.851 4.851 0 0 1 154.117 40.495 A 6.314 6.314 0 0 1 153.401 40.3 A 7.075 7.075 0 0 1 152.219 39.777 A 8.674 8.674 0 0 1 151.601 39.4 A 21.139 21.139 0 0 0 152.278 37.272 A 17.923 17.923 0 0 0 152.501 36.3 A 15.985 15.985 0 0 0 152.741 34.698 A 12.514 12.514 0 0 0 152.801 33.5 A 9.164 9.164 0 0 0 152.736 32.37 Q 152.666 31.812 152.522 31.356 A 3.542 3.542 0 0 0 152.101 30.45 A 2.262 2.262 0 0 0 150.461 29.431 A 3.297 3.297 0 0 0 150.001 29.4 A 4.685 4.685 0 0 0 147.135 30.493 Q 144.223 32.731 141.401 39.55 A 59.143 59.143 0 0 0 138.386 48.835 A 44.213 44.213 0 0 0 137.201 58.8 Q 137.201 62.572 138.243 64.528 A 4.746 4.746 0 0 0 138.751 65.3 Q 140.244 67.13 144.102 67.198 A 17.095 17.095 0 0 0 144.401 67.2 Q 149.101 67.2 153.051 65.05 Q 156.721 63.053 161.384 57.904 A 73.478 73.478 0 0 0 162.101 57.1 L 162.118 57.1 L 172.801 7 L 187.601 5 L 180.101 40.2 L 199.401 25 L 209.301 25 L 189.301 38.9 Q 190.648 38.708 191.301 38.608 A 60.863 60.863 0 0 0 191.351 38.6 A 8.513 8.513 0 0 1 192.296 38.507 A 7.434 7.434 0 0 1 192.601 38.5 A 13.109 13.109 0 0 1 196.056 38.932 A 9.523 9.523 0 0 1 200.651 41.7 A 10.857 10.857 0 0 1 203.276 46.912 A 15.785 15.785 0 0 1 203.601 50.2 Q 203.601 51.2 203.501 52.15 Q 203.401 53.1 203.201 54 L 202.101 59 Q 201.901 60.2 201.751 61 Q 201.632 61.634 201.607 62.017 A 2.869 2.869 0 0 0 201.601 62.2 Q 201.601 63.422 201.993 64.23 A 2.635 2.635 0 0 0 202.551 65 Q 203.501 65.9 205.501 65.9 Q 208.001 65.9 209.801 64.2 A 7.981 7.981 0 0 0 210.732 63.119 Q 212.112 61.238 213.748 57.455 A 67.51 67.51 0 0 0 213.901 57.1 L 218.101 57.1 Q 215.928 63.548 213.019 67.761 A 23.535 23.535 0 0 1 210.401 70.95 A 16.193 16.193 0 0 1 205.924 74.21 A 14.153 14.153 0 0 1 199.701 75.6 A 20.201 20.201 0 0 1 196.085 75.298 Q 194.102 74.936 192.536 74.144 A 9.838 9.838 0 0 1 190.351 72.65 A 9.551 9.551 0 0 1 187.494 67.716 Q 187.113 66.163 187.101 64.32 A 18.476 18.476 0 0 1 187.101 64.2 A 21.127 21.127 0 0 1 187.185 62.344 A 24.085 24.085 0 0 1 187.251 61.7 A 27.541 27.541 0 0 1 187.56 59.694 A 31.528 31.528 0 0 1 187.701 59 L 188.501 55.1 Q 188.701 54.2 188.801 53.3 A 16.553 16.553 0 0 0 188.894 51.925 A 19.219 19.219 0 0 0 188.901 51.4 Q 188.901 49 188.001 47.8 A 2.908 2.908 0 0 0 186.151 46.677 A 4.502 4.502 0 0 0 185.301 46.6 A 6.169 6.169 0 0 0 183.741 46.812 Q 182.927 47.025 182.051 47.45 Q 180.301 48.3 177.901 50.3 L 172.701 75 L 158.301 75 L 160.671 63.884 A 40.869 40.869 0 0 1 155.583 69.034 A 31.392 31.392 0 0 1 152.901 71.05 Q 146.101 75.6 138.001 75.6 Q 130.301 75.6 126.351 71.6 Q 122.401 67.6 122.401 59.7 A 42.094 42.094 0 0 1 123.067 52.398 A 53.164 53.164 0 0 1 124.151 47.6 A 46.166 46.166 0 0 1 125.489 43.434 A 36.514 36.514 0 0 1 120.941 44.769 A 42.799 42.799 0 0 1 118.201 45.3 A 52.058 52.058 0 0 1 116.541 54.694 Q 114.967 60.334 112.104 64.734 A 30.672 30.672 0 0 1 110.401 67.1 A 24.187 24.187 0 0 1 105.073 72.138 A 18.776 18.776 0 0 1 94.301 75.4 A 24.308 24.308 0 0 1 89.683 74.99 Q 87.049 74.48 85.002 73.335 A 12.296 12.296 0 0 1 82.401 71.4 A 12.705 12.705 0 0 1 79.746 67.545 A 29.207 29.207 0 0 1 78.687 68.828 A 22.823 22.823 0 0 1 76.601 70.9 Q 71.201 75.6 64.201 75.6 A 12.793 12.793 0 0 1 60.885 75.194 A 9.179 9.179 0 0 1 56.351 72.45 A 10.344 10.344 0 0 1 54.127 68.384 Q 53.657 66.8 53.54 64.901 A 21.084 21.084 0 0 1 53.501 63.6 A 20.327 20.327 0 0 1 53.545 62.305 Q 53.582 61.721 53.651 61.082 A 33.768 33.768 0 0 1 53.701 60.65 A 37.57 37.57 0 0 1 53.989 58.715 A 47.406 47.406 0 0 1 54.301 57.1 L 60.301 29 L 57.001 29 Z M 253.601 0.2 L 254.501 61.7 L 275.501 0.5 L 288.601 0.5 L 288.601 61.7 L 310.101 0.5 L 317.101 0.5 L 289.301 75 L 274.501 75 L 274.501 24.1 L 254.701 75 L 240.001 75 L 240.001 6.7 A 28.152 28.152 0 0 0 234.144 9.243 A 20.397 20.397 0 0 0 227.901 14.8 A 20.668 20.668 0 0 0 224.389 22.875 A 29.309 29.309 0 0 0 223.801 28.9 Q 223.801 30.8 224.051 32.2 Q 224.301 33.6 224.901 34.9 Q 225.074 35.247 225.135 35.405 A 1.112 1.112 0 0 1 225.151 35.45 A 1.304 1.304 0 0 1 225.177 35.539 Q 225.189 35.585 225.195 35.624 A 0.519 0.519 0 0 1 225.201 35.7 A 21.136 21.136 0 0 1 222.292 35.514 Q 218.944 35.048 217.117 33.41 A 6.361 6.361 0 0 1 217.051 33.35 Q 214.983 31.444 214.592 27.795 A 16.874 16.874 0 0 1 214.501 26 A 16.114 16.114 0 0 1 215.859 19.633 A 22.173 22.173 0 0 1 217.851 16 Q 221.201 11 227.201 7 Q 232.301 3.7 238.151 1.85 A 39.455 39.455 0 0 1 246.254 0.163 A 34.724 34.724 0 0 1 249.601 0 Q 250.301 0 251.151 0.05 Q 251.802 0.089 252.892 0.156 A 1391.249 1391.249 0 0 1 253.601 0.2 Z M 310.101 57.1 L 316.901 25 L 331.301 25 L 324.101 59 Q 323.901 59.9 323.801 60.65 A 11.689 11.689 0 0 0 323.701 62.15 A 12.77 12.77 0 0 0 323.701 62.2 Q 323.701 63.36 324.02 64.133 A 2.476 2.476 0 0 0 324.651 65.05 A 2.759 2.759 0 0 0 325.517 65.56 Q 326.32 65.866 327.528 65.897 A 10.79 10.79 0 0 0 327.801 65.9 A 6.622 6.622 0 0 0 331.245 64.907 Q 332.163 64.358 333.044 63.506 A 12.414 12.414 0 0 0 333.101 63.45 A 13.64 13.64 0 0 0 333.601 62.927 A 14.964 14.964 0 0 1 333.601 62.8 Q 333.601 59.7 335.101 57.15 A 10.264 10.264 0 0 1 336.654 55.108 A 8.044 8.044 0 0 1 338.901 53.5 A 132.707 132.707 0 0 0 344.129 43.027 A 149.353 149.353 0 0 0 345.251 40.45 Q 348.201 33.5 351.201 23.9 L 366.001 21.9 Q 366.301 29.4 366.701 35.6 Q 367.101 41.8 367.701 49.1 Q 367.977 52.968 368.084 54.716 A 129.875 129.875 0 0 1 368.101 55 A 56.889 56.889 0 0 1 368.199 57.899 A 51.807 51.807 0 0 1 368.201 58.3 A 24.934 24.934 0 0 1 368.187 59.158 Q 368.163 59.838 368.101 60.4 A 13.343 13.343 0 0 1 367.897 61.681 A 11.608 11.608 0 0 1 367.801 62.1 Q 369.801 60.9 371.701 59.6 A 45.587 45.587 0 0 0 373.424 58.364 Q 374.279 57.719 375.001 57.1 L 375.394 57.1 A 40.887 40.887 0 0 1 375.969 52.494 A 51.804 51.804 0 0 1 377.101 47.6 A 50.514 50.514 0 0 1 379.661 40.494 A 41.541 41.541 0 0 1 381.901 36.2 A 30.33 30.33 0 0 1 385.688 31.224 A 23.429 23.429 0 0 1 390.751 27.15 A 22.03 22.03 0 0 1 401.407 24.115 A 26.322 26.322 0 0 1 402.301 24.1 A 20.57 20.57 0 0 1 405.324 24.307 Q 406.868 24.537 408.113 25.023 A 8.423 8.423 0 0 1 410.551 26.45 A 7.352 7.352 0 0 1 412.774 29.901 Q 413.301 31.557 413.301 33.7 A 18.401 18.401 0 0 1 408.094 46.579 A 25.428 25.428 0 0 1 406.501 48.15 Q 399.701 54.3 390.301 54.8 L 390.151 57.35 Q 390.101 58.2 390.101 58.8 Q 390.101 62.572 391.143 64.528 A 4.746 4.746 0 0 0 391.651 65.3 Q 393.144 67.13 397.002 67.198 A 17.095 17.095 0 0 0 397.301 67.2 Q 402.001 67.2 405.951 65.05 Q 409.621 63.053 414.284 57.904 A 73.478 73.478 0 0 0 415.001 57.1 L 418.401 57.1 A 59.77 59.77 0 0 1 413.91 63.468 Q 411.287 66.689 408.483 69.034 A 31.392 31.392 0 0 1 405.801 71.05 Q 399.001 75.6 390.901 75.6 Q 383.201 75.6 379.251 71.6 Q 375.98 68.288 375.417 62.301 A 27.833 27.833 0 0 1 375.335 61.14 A 53.885 53.885 0 0 1 372.351 63.75 Q 368.601 66.8 363.901 69.6 A 16.663 16.663 0 0 1 359.126 73.132 A 20.725 20.725 0 0 1 357.001 74.05 Q 352.801 75.6 348.201 75.6 A 19.915 19.915 0 0 1 343.74 75.129 Q 340.081 74.289 337.551 71.95 A 11.872 11.872 0 0 1 334.851 68.404 A 29.207 29.207 0 0 1 334.487 68.828 A 22.823 22.823 0 0 1 332.401 70.9 Q 327.001 75.6 320.001 75.6 A 12.793 12.793 0 0 1 316.685 75.194 A 9.179 9.179 0 0 1 312.151 72.45 A 10.344 10.344 0 0 1 309.927 68.384 Q 309.457 66.8 309.34 64.901 A 21.084 21.084 0 0 1 309.301 63.6 A 20.327 20.327 0 0 1 309.345 62.305 Q 309.382 61.721 309.451 61.082 A 33.768 33.768 0 0 1 309.501 60.65 A 37.57 37.57 0 0 1 309.789 58.715 A 47.406 47.406 0 0 1 310.101 57.1 Z M 12.501 17.9 Q 12.501 10.2 19.151 5.1 A 24.393 24.393 0 0 1 30.198 0.427 A 33 33 0 0 1 35.601 0 A 30.299 30.299 0 0 1 40.024 0.303 Q 44.529 0.969 47.451 3.1 A 10.017 10.017 0 0 1 51.617 10.423 A 14.395 14.395 0 0 1 51.701 12 Q 51.701 16.5 49.451 19.3 Q 47.201 22.1 43.501 22.1 A 6.804 6.804 0 0 1 41.926 21.924 A 5.797 5.797 0 0 1 40.951 21.6 A 5.175 5.175 0 0 1 39.427 20.572 A 6.462 6.462 0 0 1 38.901 20 Q 40.901 18.8 42.151 16.4 Q 43.401 14 43.401 11.4 A 8.627 8.627 0 0 0 43.176 9.372 A 5.682 5.682 0 0 0 41.501 6.45 Q 39.601 4.7 36.001 4.7 A 12.401 12.401 0 0 0 33.206 4.997 Q 30.839 5.544 29.251 7.1 Q 26.801 9.5 26.801 13.8 Q 26.801 17.3 28.601 20.45 A 15.411 15.411 0 0 0 29.853 22.275 Q 31.994 25.008 36.401 28.9 A 81.785 81.785 0 0 1 40.417 32.635 Q 44.018 36.236 45.9 39.247 A 18.658 18.658 0 0 1 46.801 40.85 Q 49.301 45.9 49.301 52.1 A 26.554 26.554 0 0 1 48.022 60.529 A 21.788 21.788 0 0 1 41.401 70.3 A 27.625 27.625 0 0 1 27.944 76.532 A 38.404 38.404 0 0 1 21.201 77.1 A 34.523 34.523 0 0 1 14.948 76.569 Q 11.42 75.918 8.617 74.473 A 18.032 18.032 0 0 1 5.701 72.6 A 14.649 14.649 0 0 1 0.14 62.373 A 21.298 21.298 0 0 1 0.001 59.9 A 19.758 19.758 0 0 1 0.71 54.479 A 15.352 15.352 0 0 1 4.301 48.1 Q 8.601 43.5 14.701 43.5 Q 18.501 43.5 20.901 45.25 A 6.113 6.113 0 0 1 23.444 49.531 A 8.02 8.02 0 0 1 23.501 50.1 A 17.656 17.656 0 0 0 19.875 50.452 Q 17.562 50.937 15.771 52.092 A 10.646 10.646 0 0 0 15.051 52.6 A 8.034 8.034 0 0 0 11.852 58.43 A 11.017 11.017 0 0 0 11.801 59.5 A 11.102 11.102 0 0 0 12.263 62.777 A 8.945 8.945 0 0 0 14.401 66.4 A 8.643 8.643 0 0 0 19.313 68.932 A 12.387 12.387 0 0 0 21.401 69.1 A 12.174 12.174 0 0 0 25.432 68.46 A 10.323 10.323 0 0 0 29.801 65.5 Q 32.881 62.035 32.996 56.253 A 22.73 22.73 0 0 0 33.001 55.8 Q 33.001 51.1 30.901 46.8 Q 28.801 42.5 22.201 35.3 Q 17.539 30.328 15.382 27.015 A 19.095 19.095 0 0 1 14.351 25.25 Q 12.501 21.6 12.501 17.9 Z M 106.501 30.2 A 5.551 5.551 0 0 0 103.122 31.453 Q 101.043 33.028 99.076 36.583 A 40.147 40.147 0 0 0 97.451 39.9 A 54.376 54.376 0 0 0 94.418 48.702 A 40.078 40.078 0 0 0 93.201 58.3 A 33.048 33.048 0 0 0 93.262 60.401 Q 93.455 63.412 94.251 64.7 A 3.223 3.223 0 0 0 95.852 66.002 Q 96.848 66.4 98.301 66.4 A 5.158 5.158 0 0 0 101.235 65.42 Q 102.983 64.229 104.645 61.591 A 25.997 25.997 0 0 0 105.351 60.4 A 34.308 34.308 0 0 0 108.092 53.931 Q 109.282 50.138 109.901 45.6 A 3.724 3.724 0 0 1 108.939 45.261 A 2.781 2.781 0 0 1 107.851 44.25 A 3.881 3.881 0 0 1 107.418 43.231 Q 107.286 42.75 107.234 42.175 A 8.65 8.65 0 0 1 107.201 41.4 A 7.598 7.598 0 0 1 107.377 39.729 A 5.852 5.852 0 0 1 108.001 38.1 Q 108.801 36.7 110.301 36 Q 110.144 33.489 109.587 32.148 A 3.958 3.958 0 0 0 109.251 31.5 A 2.76 2.76 0 0 0 107.436 30.292 A 4.489 4.489 0 0 0 106.501 30.2 Z M 338.952 62.016 A 43.282 43.282 0 0 0 339.317 61.254 A 1.94 1.94 0 0 0 339.365 61.297 A 2.521 2.521 0 0 0 339.901 61.65 Q 340.316 61.858 340.838 61.943 A 4.776 4.776 0 0 0 341.601 62 A 3.776 3.776 0 0 0 343.585 61.458 A 4.672 4.672 0 0 0 344.701 60.5 Q 346.001 59 346.001 57.1 A 4.5 4.5 0 0 0 345.981 56.679 A 3.579 3.579 0 0 0 345.401 55 A 3.66 3.66 0 0 0 344.727 54.243 A 4.331 4.331 0 0 0 343.701 53.6 A 185.987 185.987 0 0 0 345.085 50.914 Q 346.182 48.742 347.087 46.792 A 95.394 95.394 0 0 0 348.651 43.25 A 118.034 118.034 0 0 0 349.753 40.503 A 99.577 99.577 0 0 0 351.801 34.7 Q 352.101 38.8 352.401 42.4 A 257.766 257.766 0 0 0 352.489 43.435 Q 352.627 45.019 352.802 46.798 A 461.586 461.586 0 0 0 353.201 50.7 A 782.184 782.184 0 0 1 353.247 51.226 Q 353.509 54.215 353.601 55.55 Q 353.701 57 353.701 58.4 A 16.145 16.145 0 0 1 353.665 59.488 Q 353.414 63.199 351.401 65.3 Q 349.101 67.7 345.001 67.7 A 10.611 10.611 0 0 1 343.843 67.64 Q 341.524 67.385 340.351 66.05 Q 339.303 64.858 339.012 62.595 A 14.925 14.925 0 0 1 338.952 62.016 Z M 403.101 29.4 A 4.553 4.553 0 0 0 400.624 30.199 Q 399.028 31.225 397.421 33.571 A 26.945 26.945 0 0 0 396.251 35.45 A 41.32 41.32 0 0 0 393.158 42.341 Q 392.001 45.662 391.205 49.488 A 67.68 67.68 0 0 0 391.101 50 A 13.944 13.944 0 0 0 399.569 46.347 A 19.187 19.187 0 0 0 401.251 44.65 A 17.656 17.656 0 0 0 404.58 39.213 A 16.074 16.074 0 0 0 405.601 33.5 A 11.707 11.707 0 0 0 405.553 32.406 Q 405.451 31.322 405.129 30.641 A 2.769 2.769 0 0 0 405.001 30.4 Q 404.401 29.4 403.101 29.4 Z M 332.56 17.192 A 7.527 7.527 0 0 0 334.801 11.7 A 9.208 9.208 0 0 0 334.8 11.597 A 7.695 7.695 0 0 0 332.451 6.05 A 9.397 9.397 0 0 0 332.377 5.977 A 7.693 7.693 0 0 0 326.801 3.7 A 9.171 9.171 0 0 0 326.647 3.702 A 7.525 7.525 0 0 0 321.201 6.05 A 9.359 9.359 0 0 0 321.192 6.06 A 7.787 7.787 0 0 0 318.901 11.7 A 9.402 9.402 0 0 0 318.901 11.803 A 7.609 7.609 0 0 0 321.201 17.3 A 7.931 7.931 0 0 0 323.192 18.768 A 7.792 7.792 0 0 0 326.801 19.6 A 9.433 9.433 0 0 0 326.814 19.6 A 7.787 7.787 0 0 0 332.451 17.3 A 9.076 9.076 0 0 0 332.56 17.192 Z" vector-effect="non-scaling-stroke"/></g></svg>